HIERARCHY
ROOT Hips
{
	OFFSET 0.00000 0.00000 0.00000
	CHANNELS 6 Xposition Yposition Zposition Zrotation Yrotation Xrotation 
	JOINT LHipJoint
	{
		OFFSET 0 0 0
		CHANNELS 3 Zrotation Yrotation Xrotation
		JOINT LeftHip
		{
			OFFSET 1.53927 -1.56553 0.51726
			CHANNELS 3 Zrotation Yrotation Xrotation
			JOINT LeftKnee
			{
				OFFSET 2.38199 -6.54447 0.00000
				CHANNELS 3 Zrotation Yrotation Xrotation
				JOINT LeftAnkle
				{
					OFFSET 2.35499 -6.47028 0.00000
					CHANNELS 3 Zrotation Yrotation Xrotation
					JOINT LeftToe
					{
						OFFSET 0.13641 -0.37478 1.84251
						CHANNELS 3 Zrotation Yrotation Xrotation
						End Site
						{
							OFFSET 0.00000 -0.00000 0.95212
						}
					}
				}
			}
		}
	}
	JOINT RHipJoint
	{
		OFFSET 0 0 0
		CHANNELS 3 Zrotation Yrotation Xrotation
		JOINT RightHip
		{
			OFFSET -1.43919 -1.56553 0.51726
			CHANNELS 3 Zrotation Yrotation Xrotation
			JOINT RightKnee
			{
				OFFSET -2.34860 -6.45274 0.00000
				CHANNELS 3 Zrotation Yrotation Xrotation
				JOINT RightAnkle
				{
					OFFSET -2.25563 -6.19730 0.00000
					CHANNELS 3 Zrotation Yrotation Xrotation
					JOINT RightToe
					{
						OFFSET -0.19755 -0.54277 1.84912
						CHANNELS 3 Zrotation Yrotation Xrotation
						End Site
						{
							OFFSET -0.00000 -0.00000 0.97032
						}
					}
				}
			}
		}
	}
	JOINT lowerback
	{
		OFFSET 0 0 0
		CHANNELS 3 Zrotation Yrotation Xrotation
		JOINT Chest
		{
			OFFSET -0.06402 1.88434 -0.00445
			CHANNELS 3 Zrotation Yrotation Xrotation
			JOINT Chest2
			{
				OFFSET 0.00756 1.88511 0.04237
				CHANNELS 3 Zrotation Yrotation Xrotation
				JOINT lowerneck
				{
					OFFSET 0 0 0
					CHANNELS 3 Zrotation Yrotation Xrotation
					JOINT Neck
					{
						OFFSET -0.06230 1.34710 0.03308
						CHANNELS 3 Zrotation Yrotation Xrotation
						JOINT Head
						{
							OFFSET -0.02442 1.34501 -0.13654
							CHANNELS 3 Zrotation Yrotation Xrotation
							End Site
							{
								OFFSET -0.00508 1.35584 -0.05075
							}
						}
					}
				}
				JOINT LeftCollar
				{
					OFFSET 0 0 0
					CHANNELS 3 Zrotation Yrotation Xrotation
					JOINT LeftShoulder
					{
						OFFSET 2.76911 0.54460 0.39412
CHANNELS 3 Zrotation Xrotation Yrotation
						JOINT LeftElbow
						{
OFFSET 0 -4.409190 -0.000000
CHANNELS 3 Zrotation Xrotation Yrotation
							JOINT LeftWrist
							{
OFFSET 0 -3.038570 -0.000000
CHANNELS 3 Zrotation Xrotation Yrotation
								JOINT lhand
								{
									OFFSET 0 0 0
CHANNELS 3 Zrotation Xrotation Yrotation
									JOINT LFingers
									{
OFFSET 0 -0.523210 -0.000000
CHANNELS 3 Zrotation Xrotation Yrotation
										End Site
										{
OFFSET 0 -0.421820 -0.000000
										}
									}
								}
								JOINT LThumb
								{
OFFSET 0 0.000000 0.000000
CHANNELS 3 Zrotation Xrotation Yrotation
									End Site
									{
OFFSET 0 -0.428260 0.428260
									}
								}
							}
						}
					}
				}
				JOINT RightCollar
				{
					OFFSET 0 0 0
					CHANNELS 3 Zrotation Yrotation Xrotation
					JOINT RightShoulder
					{
						OFFSET -2.99050 0.75949 0.48975
CHANNELS 3 Zrotation Xrotation Yrotation
						JOINT RightElbow
						{
OFFSET 0 -4.619690 -0.000000
CHANNELS 3 Zrotation Xrotation Yrotation
							JOINT RightWrist
							{
OFFSET 0 -3.093820 -0.000000
CHANNELS 3 Zrotation Xrotation Yrotation
								JOINT rhand
								{
									OFFSET 0 0 0
CHANNELS 3 Zrotation Xrotation Yrotation
									JOINT RFingers
									{
OFFSET 0 -0.500900 -0.000000
CHANNELS 3 Zrotation Xrotation Yrotation
										End Site
										{
OFFSET 0 -0.403840 -0.000000
										}
									}
								}
								JOINT RThumb
								{
OFFSET 0 0.000000 0.000000
CHANNELS 3 Zrotation Xrotation Yrotation
									End Site
									{
OFFSET 0 -0.410000 0.410000
									}
								}
							}
						}
					}
				}
			}
		}
	}
}
MOTION
Frames: 8
Frame Time: 0.008333333333333333
31.624663 16.037788 1.720171 362.859733 -70.100437 -351.970379 0.000000 0.000000 0.000000 -15.094712 -24.025551 -24.189440 3.201387 11.014114 32.327568 0.287995 4.063660 -12.462344 0.036675 1.208032 3.321597 0.000000 0.000000 0.000000 19.372315 7.122801 -13.015149 -2.246230 -9.361190 26.931742 0.751067 -24.184318 -29.041474 -0.328602 3.684430 -10.190409 -4.377911 -0.600760 -1.921722 1.588825 -0.809215 -3.660010 4.101191 -0.284799 -2.614948 6.420757 12.383229 2.934151 -19.128750 17.097380 1.882751 -6.320066 8.433116 2.325945 0.000000 0.000000 0.000000 47.425753 30.030133 -43.733498 131.503776 -52.370620 95.021834 7.054420 11.942855 16.894172 0.000000 0.000000 0.000000 -7.125000 0.000000 0.000000 -13.763498 13.309497 -10.540541 0.000000 0.000000 0.000000 -28.494743 52.022973 22.394386 -61.761664 -56.761385 -35.810785 -9.602355 6.123123 42.034053 0.000000 0.000000 0.000000 7.125000 0.000000 0.000000 38.806542 68.718456 -23.344293
31.598861 16.031377 1.741282 363.145693 -69.209504 -352.092521 0.000000 0.000000 0.000000 -15.287736 -24.122449 -24.377803 3.207449 11.023588 32.359321 0.280216 3.394918 -11.841921 0.087748 1.906363 5.247048 0.000000 0.000000 0.000000 19.307771 6.901645 -12.864493 -2.215538 -9.301338 26.742651 0.828065 -24.691220 -29.331920 -0.351423 3.807947 -10.537149 -4.254896 -0.383231 -1.992915 1.402024 -0.517725 -3.631583 3.836386 -0.145629 -2.576760 6.804712 13.434544 2.819572 -19.143587 18.681637 2.647390 -6.220683 9.176127 2.815705 0.000000 0.000000 0.000000 48.032414 28.718191 -44.206985 131.820689 -52.234212 95.272601 6.364236 11.877703 16.890331 0.000000 0.000000 0.000000 -7.125000 0.000000 0.000000 -14.214503 13.357026 -10.893948 0.000000 0.000000 0.000000 -26.419851 52.220154 20.171620 -61.680238 -56.741251 -35.742665 -9.746563 6.417444 41.765020 0.000000 0.000000 0.000000 7.125000 0.000000 0.000000 38.174053 68.565327 -22.791961
31.576016 16.029287 1.757281 363.388972 -68.136309 -352.078543 0.000000 0.000000 0.000000 -15.407509 -24.336280 -24.673147 3.208545 11.025168 32.364876 0.309661 2.438479 -11.698181 0.154504 2.521392 6.949495 0.000000 0.000000 0.000000 19.307652 6.676453 -12.807953 -2.183343 -9.237913 26.542346 0.978877 -25.488687 -29.608564 -0.407563 4.098304 -11.353488 -4.203080 -0.175239 -2.167497 1.261423 -0.234083 -3.604416 3.659881 -0.009537 -2.478275 6.802833 14.378240 3.120478 -18.992637 20.011091 2.841121 -6.076611 9.843485 2.986124 0.000000 0.000000 0.000000 48.683035 27.194722 -44.842598 131.908610 -52.196083 95.342093 7.227988 11.562484 16.476870 0.000000 0.000000 0.000000 -7.125000 0.000000 0.000000 -13.662578 13.706661 -10.342938 0.000000 0.000000 0.000000 -24.459470 52.243407 18.115527 -61.595003 -56.720217 -35.671441 -9.534933 6.268066 42.733701 0.000000 0.000000 0.000000 7.125000 0.000000 0.000000 40.148102 69.212142 -24.663690
31.546792 16.029564 1.769440 363.482072 -67.284002 -352.073876 0.000000 0.000000 0.000000 -15.518053 -24.559362 -24.683539 3.207671 11.023857 32.360256 0.332959 1.774570 -11.694194 0.172194 2.673060 7.369723 0.000000 0.000000 0.000000 19.382216 6.490022 -12.528742 -2.145344 -9.162474 26.304740 1.099792 -26.119191 -29.849295 -0.433257 4.223801 -11.707259 -4.329740 -0.096476 -2.286800 1.314400 -0.118002 -3.486957 3.785644 0.047052 -2.301205 7.062291 15.299674 3.809210 -19.578476 21.256506 2.316159 -6.238152 10.519726 2.978732 0.000000 0.000000 0.000000 48.760030 25.966733 -44.929346 131.800991 -52.242823 95.257067 7.599990 11.510151 16.310740 0.000000 0.000000 0.000000 -7.125000 0.000000 0.000000 -13.424396 13.845287 -10.108810 0.000000 0.000000 0.000000 -23.548693 51.701295 17.098439 -61.227310 -56.628194 -35.364241 -9.927544 6.559025 42.795894 0.000000 0.000000 0.000000 7.125000 0.000000 0.000000 39.866645 69.384548 -24.617954
31.514525 16.030825 1.784687 363.614813 -66.087838 -352.003716 0.000000 0.000000 0.000000 -15.631171 -24.777502 -24.886752 3.208913 11.025769 32.366871 0.355871 0.906010 -11.635305 0.170797 2.661614 7.338052 0.000000 0.000000 0.000000 19.472191 6.269473 -12.299388 -2.104165 -9.079643 26.044872 1.185337 -26.789653 -30.456380 -0.414589 4.128374 -11.438763 -4.407667 -0.122108 -2.583639 1.360420 -0.133780 -3.340318 3.876293 0.031771 -1.980430 7.285393 16.003640 4.478823 -20.117481 22.204919 1.815073 -6.404607 11.050593 2.941664 0.000000 0.000000 0.000000 48.893117 24.671569 -44.987203 131.729203 -52.273827 95.200245 7.344185 11.606191 16.237215 0.000000 0.000000 0.000000 -7.125000 0.000000 0.000000 -13.595247 13.933342 -10.219050 0.000000 0.000000 0.000000 -22.759158 50.908489 16.347966 -60.762326 -56.509713 -34.976141 -10.324619 6.738758 43.467365 0.000000 0.000000 0.000000 7.125000 0.000000 0.000000 40.777424 69.997135 -25.775750
31.495528 16.029194 1.804024 363.617838 -65.300574 -351.790988 0.000000 0.000000 0.000000 -15.712075 -24.811127 -25.142369 3.202341 11.015629 32.332470 0.357846 0.473544 -11.482174 0.169028 2.646462 7.296050 0.000000 0.000000 0.000000 19.513879 6.030547 -12.326634 -2.081135 -9.032979 25.898671 1.374676 -27.453367 -30.333219 -0.511988 4.586618 -12.733085 -3.976426 0.368064 -2.593293 0.900380 0.503783 -3.558219 3.160573 0.344012 -2.253400 8.318738 16.299916 5.070910 -19.986121 22.786690 2.419266 -6.466525 11.355947 3.206787 0.000000 0.000000 0.000000 50.349606 22.912099 -46.220280 131.553471 -52.349378 95.061138 7.448283 11.651077 16.173872 0.000000 0.000000 0.000000 -7.125000 0.000000 0.000000 -13.528877 13.988799 -10.149783 0.000000 0.000000 0.000000 -19.964302 51.128076 14.005129 -60.756352 -56.508127 -34.971190 -10.456637 7.203807 43.636966 0.000000 0.000000 0.000000 7.125000 0.000000 0.000000 40.979438 70.162571 -26.057578
31.469784 16.028361 1.825892 363.843135 -64.031571 -351.972915 0.000000 0.000000 0.000000 -16.011564 -25.084768 -25.042056 3.171461 10.967515 32.170508 0.350290 -0.332576 -11.068328 0.305381 3.540615 9.789042 0.000000 0.000000 0.000000 19.543643 5.452627 -12.231888 -2.088579 -9.048158 25.946146 1.383193 -27.799153 -30.933261 -0.476800 4.428127 -12.284367 -3.958595 0.486118 -2.748514 0.804585 0.669181 -3.477634 3.054132 0.421091 -2.095199 8.353477 16.982359 5.009325 -19.502724 23.820041 3.167796 -6.187087 11.831421 3.531701 0.000000 0.000000 0.000000 50.744526 21.056258 -46.716456 130.754859 -52.685736 94.427215 7.400928 11.701888 16.676084 0.000000 0.000000 0.000000 -7.125000 0.000000 0.000000 -13.543604 13.500656 -10.305770 0.000000 0.000000 0.000000 -18.514780 50.627945 12.694701 -60.501952 -56.442185 -34.759072 -10.026888 7.225568 44.131696 0.000000 0.000000 0.000000 7.125000 0.000000 0.000000 42.444966 70.359813 -27.284303
31.445792 16.038074 1.845472 363.921923 -63.163357 -351.761733 0.000000 0.000000 0.000000 -16.078686 -25.326396 -25.241457 3.146247 10.928108 32.037897 0.351819 -0.844886 -10.941138 0.336998 3.730483 10.319555 0.000000 0.000000 0.000000 19.574910 5.326120 -12.356533 -2.090287 -9.051734 25.957358 1.506433 -28.343467 -31.110869 -0.525548 4.645565 -12.900464 -3.858482 0.793290 -3.080067 0.671592 1.086670 -3.538996 2.865748 0.622567 -1.996875 8.447638 17.362784 5.462908 -19.151246 24.397130 3.452524 -6.070281 12.134729 3.589944 0.000000 0.000000 0.000000 51.039441 18.836270 -47.519653 129.560022 -53.170065 93.473698 7.267983 11.726235 16.225283 0.000000 0.000000 0.000000 -7.125000 0.000000 0.000000 -13.646017 13.949719 -10.254545 0.000000 0.000000 0.000000 -16.978675 49.952376 11.295253 -60.528469 -56.449142 -34.781162 -9.013041 6.110613 46.026684 0.000000 0.000000 0.000000 7.125000 0.000000 0.000000 47.609784 71.268682 -31.923743
